<svg xmlns="http://www.w3.org/2000/svg" xmlns:xlink="http://www.w3.org/1999/xlink" version="1.1" x="0px" y="0px" viewBox="0 0 30 30" xml:space="preserve"><g transform="translate(-510 -140)"><g xmlns="http://www.w3.org/2000/svg" xmlns:xlink="http://www.w3.org/1999/xlink"><path d="M513,163c0,2.209,1.791,4,4,4h2.999c1.54,0.643,3.229,1,5.001,1s3.461-0.357,5.001-1H533c2.209,0,4-1.791,4-4v-2.999    c0.643-1.54,1-3.229,1-5.001s-0.357-3.461-1-5.001V147c0-2.209-1.791-4-4-4h-2.999c-1.54-0.643-3.229-1-5.001-1    s-3.461,0.357-5.001,1H517c-2.209,0-4,1.791-4,4v2.999c-0.643,1.54-1,3.229-1,5.001s0.357,3.461,1,5.001V163z M517,166    c-1.654,0-3-1.346-3-3v-1.094c1.041,1.654,2.439,3.053,4.094,4.094H517z M525,148c3.859,0,7,3.141,7,7s-3.141,7-7,7s-7-3.141-7-7    S521.141,148,525,148z M515.229,148.058c0.779-1.093,1.735-2.049,2.828-2.828l2.888,2.887c-1.166,0.688-2.14,1.663-2.829,2.828    L515.229,148.058z M529.055,148.116l2.888-2.887c1.093,0.779,2.049,1.735,2.828,2.828l-2.887,2.887    C531.194,149.779,530.221,148.805,529.055,148.116z M534.771,161.942c-0.779,1.093-1.735,2.049-2.828,2.828l-2.888-2.887    c1.166-0.688,2.14-1.663,2.829-2.828L534.771,161.942z M518.116,159.056c0.689,1.165,1.663,2.14,2.829,2.828l-2.888,2.887    c-1.093-0.779-2.049-1.735-2.828-2.828L518.116,159.056z M525,167c-2.222,0-4.297-0.617-6.084-1.674l2.962-2.961    c0.96,0.408,2.015,0.635,3.122,0.635s2.162-0.227,3.122-0.635l2.961,2.961C529.297,166.383,527.222,167,525,167z M536,163    c0,1.654-1.346,3-3,3h-1.094c1.654-1.041,3.053-2.439,4.094-4.094V163z M535.326,161.084l-2.961-2.962    c0.408-0.96,0.635-2.015,0.635-3.122s-0.227-2.162-0.635-3.122l2.961-2.962c1.057,1.787,1.674,3.862,1.674,6.084    S536.383,159.297,535.326,161.084z M533,144c1.654,0,3,1.346,3,3v1.094c-1.041-1.654-2.439-3.053-4.094-4.094H533z M525,143    c2.222,0,4.297,0.617,6.083,1.674l-2.961,2.961c-0.96-0.408-2.015-0.635-3.122-0.635s-2.162,0.227-3.122,0.635l-2.962-2.961    C520.703,143.617,522.778,143,525,143z M514,147c0-1.654,1.346-3,3-3h1.094c-1.654,1.041-3.053,2.439-4.094,4.094V147z     M514.674,148.916l2.961,2.962c-0.408,0.96-0.635,2.015-0.635,3.122s0.227,2.162,0.635,3.122l-2.961,2.962    C513.617,159.297,513,157.222,513,155S513.617,150.703,514.674,148.916z"></path></g></g></svg>